<?xml version="1.0" standalone="no"?>
<!DOCTYPE svg PUBLIC "-//W3C//DTD SVG 20010904//EN"
 "http://www.w3.org/TR/2001/REC-SVG-20010904/DTD/svg10.dtd">
<svg version="1.0" xmlns="http://www.w3.org/2000/svg"
 width="328.000000pt" height="132.000000pt" viewBox="0 0 328.000000 132.000000"
 preserveAspectRatio="xMidYMid meet">

<g transform="translate(0.000000,132.000000) scale(0.100000,-0.100000)"
fill="#000000" stroke="none">
<path d="M1185 1150 c-8 -14 3 -30 21 -30 8 0 14 -5 14 -11 0 -6 -9 -9 -20 -6
-11 3 -20 1 -20 -4 0 -13 38 -11 46 2 4 7 -4 20 -17 31 l-24 20 23 -5 c12 -3
22 -1 22 4 0 12 -37 11 -45 -1z"/>
<path d="M1257 1153 c-11 -10 -8 -51 3 -58 6 -4 10 8 10 29 0 37 -2 41 -13 29z"/>
<path d="M1290 1131 c0 -16 5 -33 10 -36 6 -4 10 7 10 24 0 21 5 31 15 31 10
0 15 -10 15 -30 0 -16 5 -30 11 -30 6 0 9 14 7 33 -3 28 -7 32 -35 35 -31 3
-33 1 -33 -27z"/>
<path d="M1385 1140 c-4 -12 -1 -27 5 -35 14 -16 50 -20 50 -6 0 5 -8 7 -19 4
-19 -5 -34 16 -23 34 4 6 16 13 27 16 16 4 14 5 -7 6 -19 1 -29 -5 -33 -19z"/>
<path d="M1464 1146 c-11 -29 1 -51 29 -54 15 -2 27 1 27 6 0 6 -8 8 -19 5
-10 -3 -22 0 -25 6 -5 7 2 11 17 11 30 0 40 10 26 27 -15 17 -48 17 -55 -1z
m46 -6 c0 -5 -7 -10 -15 -10 -8 0 -15 5 -15 10 0 6 7 10 15 10 8 0 15 -4 15
-10z"/>
<path d="M822 885 c2 -96 2 -175 1 -175 -1 0 -14 11 -29 25 -15 14 -38 28 -51
31 l-23 6 30 34 c25 29 30 43 30 84 0 64 -15 95 -59 123 -32 19 -49 22 -161
22 l-125 0 0 -279 0 -278 139 1 c151 2 189 11 223 55 12 14 22 26 24 26 2 0 4
-19 4 -41 l0 -41 60 0 60 -1 3 47 3 46 26 -30 c39 -47 95 -71 167 -72 73 0
127 20 167 63 l29 31 26 -31 c15 -18 40 -39 57 -48 35 -18 118 -20 160 -4 25
10 27 9 27 -18 0 -60 -72 -86 -144 -52 l-45 22 -40 -21 c-23 -11 -41 -24 -41
-29 0 -16 51 -62 85 -77 19 -7 65 -14 103 -14 115 0 189 53 201 142 l6 43 55
3 c30 2 57 5 58 7 2 2 10 72 17 155 7 83 15 153 17 155 2 2 28 -67 58 -153
l55 -157 40 -3 40 -3 55 160 c30 88 58 155 61 148 4 -7 10 -64 14 -128 4 -63
10 -130 14 -148 6 -33 6 -33 66 -33 l60 0 -3 32 -4 32 39 -31 c71 -57 194 -58
262 -3 l37 30 17 -29 c31 -54 96 -58 131 -7 9 12 16 33 16 46 0 32 -43 72 -77
72 -33 0 -73 -25 -73 -46 0 -18 -3 -18 -50 6 l-40 20 -29 -21 c-47 -35 -131
-14 -131 32 0 18 9 19 125 19 l125 0 0 33 c-1 46 -33 110 -68 136 -41 29 -111
41 -169 29 -33 -8 -57 -22 -89 -54 -44 -43 -44 -43 -44 -16 0 15 -5 84 -11
155 l-12 127 -68 0 -67 0 -47 -122 c-26 -68 -55 -141 -64 -162 l-17 -40 -61
160 -61 159 -63 3 c-34 2 -65 -1 -70 -5 -4 -4 -13 -78 -20 -163 -12 -161 -31
-242 -27 -115 l3 70 -60 0 c-43 0 -59 -4 -57 -12 3 -17 -3 -16 -40 3 -40 21
-116 21 -155 1 -17 -9 -42 -30 -57 -47 l-26 -32 -32 33 c-43 43 -90 61 -158
61 -73 0 -127 -23 -170 -72 l-35 -39 3 169 3 170 -66 0 -66 0 3 -175z m-175
28 c30 -40 -3 -93 -57 -93 l-30 0 0 61 0 62 37 -6 c21 -4 44 -14 50 -24z
m1911 -180 c21 -29 14 -33 -53 -33 -67 0 -74 5 -52 32 25 32 80 32 105 1z
m-1353 -28 c33 -32 33 -78 0 -110 -51 -52 -135 -18 -135 54 0 74 83 109 135
56z m370 19 c25 -10 47 -62 40 -95 -11 -50 -75 -76 -125 -49 -42 23 -44 106
-3 138 18 13 61 16 88 6z m-892 -45 c40 -49 7 -99 -68 -102 l-50 -2 -3 54 c-5
79 0 85 56 77 30 -4 53 -13 65 -27z"/>
<path d="M1197 1053 c-13 -13 -7 -21 13 -16 13 4 20 0 20 -9 0 -8 -9 -23 -20
-33 -28 -26 -25 -35 13 -34 23 1 26 3 10 6 l-23 4 22 29 c17 24 19 32 8 45
-13 16 -32 20 -43 8z"/>
<path d="M1282 1048 c-17 -17 -15 -63 4 -79 34 -28 68 26 44 70 -12 24 -30 27
-48 9z m38 -37 c0 -35 -13 -47 -30 -26 -14 17 -4 55 16 55 9 0 14 -11 14 -29z"/>
<path d="M1371 1046 c-9 -11 -6 -12 14 -8 32 6 32 -8 -1 -47 l-26 -31 34 1
c23 0 28 2 15 7 -16 7 -16 9 -3 27 20 26 20 51 0 59 -21 8 -20 8 -33 -8z"/>
<path d="M1473 1028 c-28 -30 -29 -38 -3 -38 12 0 20 -7 20 -17 0 -15 2 -14
14 3 8 10 11 21 6 24 -4 3 -10 16 -11 28 l-4 24 -22 -24z m17 -13 c0 -8 -4
-15 -10 -15 -5 0 -7 7 -4 15 4 8 8 15 10 15 2 0 4 -7 4 -15z"/>
</g>
</svg>
