<?xml version="1.0" standalone="no"?>
<!DOCTYPE svg PUBLIC "-//W3C//DTD SVG 20010904//EN"
 "http://www.w3.org/TR/2001/REC-SVG-20010904/DTD/svg10.dtd">
<svg version="1.0" xmlns="http://www.w3.org/2000/svg"
 width="245.000000pt" height="95.000000pt" viewBox="0 0 245.000000 95.000000"
 preserveAspectRatio="xMidYMid meet">

<g transform="translate(0.000000,95.000000) scale(0.100000,-0.100000)"
fill="#000000" stroke="none">
<path d="M777 883 c-12 -12 -7 -22 13 -28 27 -9 26 -29 -1 -22 -16 4 -19 3
-11 -5 14 -14 42 -3 42 16 0 7 -10 17 -22 21 l-23 7 25 8 c22 7 22 8 4 9 -11
1 -24 -2 -27 -6z"/>
<path d="M847 883 c-11 -10 -8 -51 3 -58 6 -4 10 8 10 29 0 37 -2 41 -13 29z"/>
<path d="M887 883 c-11 -10 -8 -53 3 -53 6 0 10 14 10 30 0 31 -2 35 -13 23z"/>
<path d="M918 883 c6 -2 12 -16 12 -29 0 -13 5 -24 10 -24 6 0 10 6 10 14 0
27 -12 46 -29 45 -10 0 -11 -2 -3 -6z"/>
<path d="M974 875 c-13 -34 25 -70 49 -46 9 9 8 11 -4 6 -19 -7 -47 22 -33 34
5 5 18 11 29 14 15 3 13 5 -8 6 -16 1 -30 -5 -33 -14z"/>
<path d="M1054 875 c-13 -33 25 -70 48 -47 8 8 5 9 -11 5 -12 -3 -21 -1 -21 6
0 6 8 11 18 11 26 0 34 11 21 27 -15 18 -48 17 -55 -2z m46 -5 c0 -5 -7 -10
-15 -10 -8 0 -15 5 -15 10 0 6 7 10 15 10 8 0 15 -4 15 -10z"/>
<path d="M412 615 c2 -96 1 -175 -1 -175 -2 0 -19 13 -38 30 -18 16 -41 30
-49 30 -12 0 -10 7 10 30 47 56 47 147 0 193 -34 34 -107 49 -219 45 l-90 -3
0 -280 0 -280 104 -3 c139 -4 206 11 249 54 19 19 35 34 36 34 0 0 1 -19 1
-42 l0 -43 58 -3 57 -3 2 33 c1 18 2 41 1 51 0 9 1 17 2 17 1 0 22 -20 47 -44
90 -86 236 -83 319 5 l27 29 39 -39 c61 -61 130 -72 227 -35 26 10 10 -46 -22
-75 -21 -19 -33 -22 -69 -18 -24 2 -52 12 -63 22 -17 16 -21 15 -64 -4 -25
-11 -46 -25 -46 -31 0 -18 47 -60 85 -76 54 -22 162 -18 215 8 53 27 90 78 90
124 l0 34 59 0 c70 0 66 -8 77 170 11 184 13 184 74 1 l55 -161 40 0 40 0 55
159 c30 88 58 158 61 155 3 -2 9 -59 13 -126 4 -68 10 -140 13 -161 l6 -38 61
3 61 3 -3 33 -2 33 37 -30 c79 -62 197 -62 268 1 l35 30 9 -24 c22 -58 88 -70
128 -24 30 35 29 71 -2 101 -33 34 -70 32 -106 -5 l-30 -30 -37 19 c-36 18
-38 18 -67 0 -44 -28 -103 -21 -127 15 -22 32 -8 36 117 36 l125 0 0 33 c-1
43 -32 109 -64 135 -35 27 -112 43 -158 33 -46 -11 -105 -46 -118 -72 -19 -35
-27 -19 -34 69 -3 48 -9 115 -12 150 l-7 62 -68 0 -68 0 -19 -52 c-63 -166
-104 -269 -108 -265 -2 2 -30 73 -63 158 l-58 154 -63 3 c-35 2 -66 -1 -71 -5
-4 -4 -13 -79 -20 -165 -13 -160 -24 -206 -24 -101 l0 58 -54 3 c-41 2 -57 -1
-63 -12 -7 -13 -13 -14 -31 -5 -73 40 -151 28 -211 -32 l-39 -40 -36 35 c-46
45 -82 58 -156 58 -71 1 -128 -24 -168 -72 -14 -16 -27 -30 -29 -30 -2 0 -3
73 -3 162 l0 163 -63 3 -63 3 3 -176z m-175 28 c30 -40 -3 -93 -57 -93 l-30 0
0 61 0 62 37 -6 c21 -4 44 -14 50 -24z m1910 -175 c7 -6 13 -17 13 -24 0 -11
-16 -14 -65 -14 -67 0 -74 5 -52 32 23 29 73 32 104 6z m-1352 -33 c52 -51 15
-135 -60 -135 -47 0 -75 29 -75 77 0 76 82 112 135 58z m386 6 c33 -27 33 -95
0 -122 -43 -35 -113 -20 -132 28 -12 31 4 88 29 103 28 16 78 11 103 -9z
m-908 -32 c40 -49 7 -99 -68 -102 l-50 -2 -3 54 c-5 79 0 85 56 77 30 -4 53
-13 65 -27z"/>
<path d="M784 778 c-5 -8 -2 -9 10 -5 26 10 31 -21 7 -47 -29 -30 -27 -36 12
-35 17 1 24 3 15 6 -22 6 -22 8 -2 38 13 20 14 28 4 40 -15 18 -36 19 -46 3z"/>
<path d="M872 778 c-26 -26 -8 -88 25 -88 23 0 38 46 25 75 -13 27 -31 32 -50
13z m38 -37 c0 -34 -9 -44 -27 -30 -16 14 -17 41 -1 57 16 16 28 5 28 -27z"/>
<path d="M965 780 c-3 -5 0 -7 8 -4 26 10 30 -17 8 -47 -27 -36 -27 -39 7 -38
16 1 20 3 10 6 -22 6 -23 17 -3 33 20 16 19 46 -1 54 -21 8 -22 8 -29 -4z"/>
<path d="M1062 757 c-27 -29 -28 -37 -2 -37 12 0 20 -7 20 -17 1 -17 1 -17 11
-1 6 10 6 30 2 48 l-8 31 -23 -24z m14 -24 c-10 -10 -19 5 -10 18 6 11 8 11
12 0 2 -7 1 -15 -2 -18z"/>
</g>
</svg>
